{"title":"Republican.Debates.09.16.2015.8pm.WS.SDTV.x264-XAiO","uid":12432894,"size":1468408324,"categoryP":"video","categoryS":"tv_shows","magnet":"?xt=urn:btih:0025fdb2ebe6ec006362636791f17ba7545c7733&amp;dn=Republican.Debates.09.16.2015.8pm.WS.SDTV.x264-XAiO&amp;tr=udp%3A%2F%2Ftracker.openbittorrent.com%3A80&amp;tr=udp%3A%2F%2Fopen.demonii.com%3A1337&amp;tr=udp%3A%2F%2Ftracker.coppersurfer.tk%3A6969&amp;tr=udp%3A%2F%2Fexodus.desync.com%3A6969","seeders":12,"leechers":0,"uploader":"Reive","files":1,"time":1442485157,"description":"RAND PAUL, DONALD TRUMP, MARCO RUBIO, BEN CARSON, CARELY FIORNA, SCOTT WALKER, MIKE HUCKABEE, CHRIS CHRISTIE\n\n_,-'2_,-'2_,-'2_,-'2_,-'2_,-'2_,-'2_,-'2_,-'2_,-'2\n\nGeneral\nComplete name : Republican.Debates.09.16.2015.9pm.WS.SDTV.x264-XAiO.mp4\nFormat : MPEG-4\nFormat profile : Base Media\nCodec ID : isom\nFile size : 1.37 GiB\nDuration : 2h 51mn\nOverall bit rate : 1 138 Kbps\nWriting application : Lavf56.25.101\n\nVideo\nID : 1\nFormat : AVC\nFormat/Info : Advanced Video Codec\nFormat profile : High@L3\nFormat settings, CABAC : Yes\nFormat settings, ReFrames : 4 frames\nCodec ID : avc1\nCodec ID/Info : Advanced Video Coding\nDuration : 2h 51mn\nBit rate : 999 Kbps\nWidth : 624 pixels\nHeight : 352 pixels\nDisplay aspect ratio : 16:9\nFrame rate mode : Variable\nFrame rate : 29.970 fps\nMinimum frame rate : 9.991 fps\nMaximum frame rate : 29.972 fps\nColor space : YUV\nChroma subsampling : 4:2:0\nBit depth : 8 bits\nScan type : Progressive\nBits/(Pixel*Frame) : 0.152\nStream size : 1.20 GiB (88%)\nWriting library : x264 core 142 r2389 956c8d8\nEncoding settings : cabac=1 / ref=3 / deblock=1:0:0 / analyse=0x3:0x133 / me=hex / subme=7 / psy=1 / psy_rd=1.00:0.00 / mixed_ref=1 / me_range=16 / chroma_me=1 / trellis=1 / 8x8dct=1 / cqm=0 / deadzone=21,11 / fast_pskip=1 / chroma_qp_offset=-2 / threads=6 / lookahead_threads=1 / sliced_threads=0 / nr=0 / decimate=1 / interlaced=0 / bluray_compat=0 / constrained_intra=0 / bframes=3 / b_pyramid=2 / b_adapt=1 / b_bias=0 / direct=1 / weightb=1 / open_gop=0 / weightp=2 / keyint=250 / keyint_min=25 / scenecut=40 / intra_refresh=0 / rc_lookahead=40 / rc=2pass / mbtree=1 / bitrate=999 / ratetol=1.0 / qcomp=0.60 / qpmin=10 / qpmax=51 / qpstep=4 / cplxblur=20.0 / qblur=0.5 / ip_ratio=1.40 / aq=1:1.00\n\nAudio\nID : 2\nFormat : AAC\nFormat/Info : Advanced Audio Codec\nFormat profile : LC\nCodec ID : 40\nDuration : 2h 51mn\nBit rate mode : Constant\nBit rate : 128 Kbps\nChannel(s) : 2 channels\nChannel positions : Front: L R\nSampling rate : 48.0 KHz\nCompression mode : Lossy\nStream size : 157 MiB (11%)\nLanguage : unk","torrent":{"xt":"urn:btih:0025fdb2ebe6ec006362636791f17ba7545c7733","amp;dn":"Republican.Debates.09.16.2015.8pm.WS.SDTV.x264-XAiO","amp;tr":["udp%3A%2F%2Ftracker.openbittorrent.com%3A80","udp%3A%2F%2Fopen.demonii.com%3A1337","udp%3A%2F%2Ftracker.coppersurfer.tk%3A6969","udp%3A%2F%2Fexodus.desync.com%3A6969"],"infoHash":"0025fdb2ebe6ec006362636791f17ba7545c7733","infoHashBuffer":{"type":"Buffer","data":[0,37,253,178,235,230,236,0,99,98,99,103,145,241,123,167,84,92,119,51]},"announce":[],"urlList":[]}}